# xmcd
#
# Track frame offsets:
#	150
#	19327
#	42972
#	61372
#	78672
#	95985
#	112924
#	127182
#	142965
#	158392
#	171161
#	175684
#	204730
#
# Disc length: 3113 seconds
#
# Revision: 0
# Processed by: cddbd v1.5.1PL2 Copyright (c) Steve Scherf et al.
# Submitted via: EasyCDDAExtractor 8.0.0.2
#
DISCID=b10c270d
DTITLE=Doro - Warrior Soul
DYEAR=2006
DGENRE=Hard Rock
TTITLE0=You're My Family
TTITLE1=Haunted Heart
TTITLE2=Strangers Yesterday
TTITLE3=Thunderspell
TTITLE4=Warrior Soul
TTITLE5=Heaven I See
TTITLE6=Creep Into My Brain
TTITLE7=Above The Ashes
TTITLE8=My Majesty
TTITLE9=In Liebe Und Freundschaft
TTITLE10=Ungebrochen
TTITLE11=Shine On
TTITLE12=Data
EXTD=
EXTT0=
EXTT1=
EXTT2=
EXTT3=
EXTT4=
EXTT5=
EXTT6=
EXTT7=
EXTT8=
EXTT9=
EXTT10=
EXTT11=
EXTT12=
PLAYORDER=
